# xmcd
#
# Track frame offsets:
#	150
#	9897
#	34271
#	64599
#	89790
#	151890
#	171423
#	183386
#	200911
#	237221
#	264516
#	291572
#	312395
#
# Disc length: 4242 seconds
#
# Revision: 0
# Processed by: cddbd v1.5.2PL0 Copyright (c) Steve Scherf et al.
# Submitted via: EasyCDDAExtractor 12.0.0.1
#
DISCID=bd10900d
DTITLE=Willie Colon - El Malo Vol II: Prisioneros Del Mambo
DYEAR=2008
DGENRE=
TTITLE0=Intro Con Polito
TTITLE1=El Brujo
TTITLE2=Narcomula
TTITLE3=Corazon Partido
TTITLE4=Hector Lavoe Medley
TTITLE5=Amor de Internet
TTITLE6=Pesadilla En El Club Riviera
TTITLE7=Mucha Lena Pa'l Fuego
TTITLE8=Suite Magia Blanca
TTITLE9=Cuando Me Muera
TTITLE10=La Mala Situacion
TTITLE11=Bongo
TTITLE12=Magia Blanca (Club Mix)
EXTD=
EXTT0=
EXTT1=
EXTT2=
EXTT3=
EXTT4=
EXTT5=
EXTT6=
EXTT7=
EXTT8=
EXTT9=
EXTT10=
EXTT11=
EXTT12=
PLAYORDER=
